<?xml version="1.0" encoding="utf-8"?>
<!-- Generator: Adobe Illustrator 16.0.4, SVG Export Plug-In . SVG Version: 6.00 Build 0)  -->
<!DOCTYPE svg PUBLIC "-//W3C//DTD SVG 1.1//EN" "http://www.w3.org/Graphics/SVG/1.1/DTD/svg11.dtd">
<svg version="1.1" id="Layer_1" xmlns="http://www.w3.org/2000/svg" xmlns:xlink="http://www.w3.org/1999/xlink" x="0px" y="0px"
	 width="698px" height="637px" viewBox="0 0 698 637" enable-background="new 0 0 698 637" xml:space="preserve">
<g>
	<rect x="20.226" y="56.638" fill="#F993A2" width="520.373" height="327.584"/>
	<rect x="539.901" y="57" fill="#FDD4DA" width="138" height="81"/>
	<rect x="539.901" y="138" fill="#FBBEC7" width="138" height="83"/>
	<rect x="539.901" y="221" fill="#FAA9B5" width="138" height="81"/>
	<rect x="539.901" y="301" fill="#F993A2" width="138" height="83"/>
	<rect x="19.901" y="404" fill="#C6FACC" width="165" height="90"/>
	<rect x="184.901" y="404" fill="#888AAD" width="164" height="90"/>
	<rect x="348.901" y="404" fill="#CEC499" width="164" height="90"/>
	<rect x="512.901" y="404" width="165" height="90"/>
	<g>
		<text transform="matrix(1 0 0 1 41.4258 83.4116)" fill="#FFFFFF" font-family="'Brown-Light'" font-size="10.6834">CSF – Primary Colour</text>
	</g>
	<g>
		<text transform="matrix(1 0 0 1 551.0352 321.7168)" fill="#FFFFFF" font-family="'Brown-Light'" font-size="10.6834">100%</text>
	</g>
	<g>
		<text transform="matrix(1 0 0 1 551.0352 239.3672)" fill="#FFFFFF" font-family="'Brown-Light'" font-size="10.6834">90%</text>
	</g>
	<g>
		<text transform="matrix(1 0 0 1 551.0352 156.5879)" fill="#FFFFFF" font-family="'Brown-Light'" font-size="10.6834">60%</text>
	</g>
	<g>
		<text transform="matrix(1 0 0 1 551.0352 74.2402)" fill="#FFFFFF" font-family="'Brown-Light'" font-size="10.6834">40%</text>
	</g>
</g>
</svg>
