<?xml version="1.0" encoding="utf-8"?>
<!-- Generator: Adobe Illustrator 16.0.4, SVG Export Plug-In . SVG Version: 6.00 Build 0)  -->
<!DOCTYPE svg PUBLIC "-//W3C//DTD SVG 1.1//EN" "http://www.w3.org/Graphics/SVG/1.1/DTD/svg11.dtd">
<svg version="1.1" id="Layer_1" xmlns="http://www.w3.org/2000/svg" xmlns:xlink="http://www.w3.org/1999/xlink" x="0px" y="0px"
	 width="670.186px" height="385px" viewBox="0 0 670.186 385" enable-background="new 0 0 670.186 385" xml:space="preserve">
<g>
	<g>
		<g>
			<g>
				<g>
					<polyline fill="none" stroke="#EA002D" stroke-width="0.3188" stroke-miterlimit="10" points="87.1,213.888 86.557,213.554 
						86.557,212.917 					"/>
					
						<line fill="none" stroke="#EA002D" stroke-width="0.3188" stroke-miterlimit="10" stroke-dasharray="1.3314,2.6628" x1="86.557" y1="210.254" x2="86.557" y2="171.643"/>
					<polyline fill="none" stroke="#EA002D" stroke-width="0.3188" stroke-miterlimit="10" points="86.557,170.312 86.557,169.674 
						87.101,169.342 					"/>
					
						<line fill="none" stroke="#EA002D" stroke-width="0.3188" stroke-miterlimit="10" stroke-dasharray="1.3171,2.6342" x1="89.351" y1="167.971" x2="121.964" y2="148.09"/>
					<polyline fill="none" stroke="#EA002D" stroke-width="0.3188" stroke-miterlimit="10" points="123.089,147.405 
						123.633,147.073 124.178,147.404 					"/>
					
						<line fill="none" stroke="#EA002D" stroke-width="0.3188" stroke-miterlimit="10" stroke-dasharray="1.3193,2.6386" x1="126.432" y1="148.775" x2="159.12" y2="168.657"/>
					<polyline fill="none" stroke="#EA002D" stroke-width="0.3188" stroke-miterlimit="10" points="160.247,169.342 
						160.792,169.674 160.792,170.312 					"/>
					
						<line fill="none" stroke="#EA002D" stroke-width="0.3188" stroke-miterlimit="10" stroke-dasharray="1.3314,2.6628" x1="160.792" y1="172.974" x2="160.792" y2="211.585"/>
					<polyline fill="none" stroke="#EA002D" stroke-width="0.3188" stroke-miterlimit="10" points="160.792,212.917 
						160.792,213.554 160.248,213.887 					"/>
					
						<line fill="none" stroke="#EA002D" stroke-width="0.3188" stroke-miterlimit="10" stroke-dasharray="1.3221,2.6443" x1="157.994" y1="215.269" x2="125.304" y2="235.306"/>
					<polyline fill="none" stroke="#EA002D" stroke-width="0.3188" stroke-miterlimit="10" points="124.177,235.997 123.633,236.33 
						123.09,235.996 					"/>
					
						<line fill="none" stroke="#EA002D" stroke-width="0.3188" stroke-miterlimit="10" stroke-dasharray="1.3199,2.6398" x1="120.84" y1="234.614" x2="88.225" y2="214.579"/>
				</g>
			</g>
			<polygon fill="none" stroke="#F993A2" stroke-width="1.517" stroke-miterlimit="10" points="160.792,213.361 160.792,169.481 
				197.878,146.879 235.038,169.481 235.038,213.361 197.878,236.137 			"/>
			<g>
				<g>
					<polyline fill="none" stroke="#EA002D" stroke-width="0.3188" stroke-miterlimit="10" points="513.209,213.888 
						512.666,213.554 512.666,212.917 					"/>
					
						<line fill="none" stroke="#EA002D" stroke-width="0.3188" stroke-miterlimit="10" stroke-dasharray="1.3314,2.6628" x1="512.666" y1="210.254" x2="512.666" y2="171.643"/>
					<polyline fill="none" stroke="#EA002D" stroke-width="0.3188" stroke-miterlimit="10" points="512.666,170.312 
						512.666,169.674 513.21,169.342 					"/>
					
						<line fill="none" stroke="#EA002D" stroke-width="0.3188" stroke-miterlimit="10" stroke-dasharray="1.3171,2.6342" x1="515.46" y1="167.971" x2="548.073" y2="148.09"/>
					<polyline fill="none" stroke="#EA002D" stroke-width="0.3188" stroke-miterlimit="10" points="549.198,147.405 
						549.742,147.073 550.286,147.406 					"/>
					
						<line fill="none" stroke="#EA002D" stroke-width="0.3188" stroke-miterlimit="10" stroke-dasharray="1.3101,2.6202" x1="552.519" y1="148.777" x2="584.896" y2="168.655"/>
					<polyline fill="none" stroke="#EA002D" stroke-width="0.3188" stroke-miterlimit="10" points="586.013,169.34 586.557,169.674 
						586.557,170.312 					"/>
					
						<line fill="none" stroke="#EA002D" stroke-width="0.3188" stroke-miterlimit="10" stroke-dasharray="1.3314,2.6628" x1="586.557" y1="172.974" x2="586.557" y2="211.585"/>
					<polyline fill="none" stroke="#EA002D" stroke-width="0.3188" stroke-miterlimit="10" points="586.557,212.917 
						586.557,213.554 586.015,213.89 					"/>
					
						<line fill="none" stroke="#EA002D" stroke-width="0.3188" stroke-miterlimit="10" stroke-dasharray="1.313,2.6259" x1="583.781" y1="215.271" x2="551.401" y2="235.303"/>
					<polyline fill="none" stroke="#EA002D" stroke-width="0.3188" stroke-miterlimit="10" points="550.284,235.994 549.742,236.33 
						549.199,235.996 					"/>
					
						<line fill="none" stroke="#EA002D" stroke-width="0.3188" stroke-miterlimit="10" stroke-dasharray="1.3199,2.6398" x1="546.949" y1="234.614" x2="514.334" y2="214.579"/>
				</g>
			</g>
			<g>
				<g>
					<polyline fill="none" stroke="#EA002D" stroke-width="0.3188" stroke-miterlimit="10" points="175.729,237.755 
						176.063,237.211 176.701,237.211 					"/>
					
						<line fill="none" stroke="#EA002D" stroke-width="0.3188" stroke-miterlimit="10" stroke-dasharray="1.3315,2.6629" x1="179.364" y1="237.211" x2="217.977" y2="237.211"/>
					<polyline fill="none" stroke="#EA002D" stroke-width="0.3188" stroke-miterlimit="10" points="219.308,237.211 
						219.945,237.211 220.277,237.756 					"/>
					
						<line fill="none" stroke="#EA002D" stroke-width="0.3188" stroke-miterlimit="10" stroke-dasharray="1.3174,2.6348" x1="221.648" y1="240.006" x2="241.529" y2="272.629"/>
					<polyline fill="none" stroke="#EA002D" stroke-width="0.3188" stroke-miterlimit="10" points="242.215,273.754 
						242.547,274.299 242.216,274.844 					"/>
					
						<line fill="none" stroke="#EA002D" stroke-width="0.3188" stroke-miterlimit="10" stroke-dasharray="1.3194,2.6388" x1="240.845" y1="277.099" x2="220.962" y2="309.789"/>
					<polyline fill="none" stroke="#EA002D" stroke-width="0.3188" stroke-miterlimit="10" points="220.276,310.916 
						219.945,311.461 219.308,311.461 					"/>
					
						<line fill="none" stroke="#EA002D" stroke-width="0.3188" stroke-miterlimit="10" stroke-dasharray="1.3315,2.6629" x1="216.645" y1="311.461" x2="178.032" y2="311.461"/>
					<polyline fill="none" stroke="#EA002D" stroke-width="0.3188" stroke-miterlimit="10" points="176.701,311.461 
						176.063,311.461 175.73,310.917 					"/>
					
						<line fill="none" stroke="#EA002D" stroke-width="0.3188" stroke-miterlimit="10" stroke-dasharray="1.3221,2.6442" x1="174.349" y1="308.662" x2="154.318" y2="275.97"/>
					<polyline fill="none" stroke="#EA002D" stroke-width="0.3188" stroke-miterlimit="10" points="153.628,274.843 
						153.295,274.299 153.629,273.756 					"/>
					
						<line fill="none" stroke="#EA002D" stroke-width="0.3188" stroke-miterlimit="10" stroke-dasharray="1.3201,2.6402" x1="155.01" y1="271.506" x2="175.039" y2="238.88"/>
				</g>
			</g>
			<g>
				<g>
					<polyline fill="none" stroke="#EA002D" stroke-width="0.3188" stroke-miterlimit="10" points="175.729,72.361 176.063,71.818 
						176.701,71.818 					"/>
					
						<line fill="none" stroke="#EA002D" stroke-width="0.3188" stroke-miterlimit="10" stroke-dasharray="1.3315,2.6629" x1="179.364" y1="71.818" x2="217.977" y2="71.818"/>
					<polyline fill="none" stroke="#EA002D" stroke-width="0.3188" stroke-miterlimit="10" points="219.308,71.818 219.945,71.818 
						220.277,72.362 					"/>
					
						<line fill="none" stroke="#EA002D" stroke-width="0.3188" stroke-miterlimit="10" stroke-dasharray="1.3174,2.6348" x1="221.648" y1="74.612" x2="241.529" y2="107.236"/>
					<polyline fill="none" stroke="#EA002D" stroke-width="0.3188" stroke-miterlimit="10" points="242.215,108.361 
						242.547,108.906 242.216,109.451 					"/>
					
						<line fill="none" stroke="#EA002D" stroke-width="0.3188" stroke-miterlimit="10" stroke-dasharray="1.3194,2.6388" x1="240.845" y1="111.705" x2="220.962" y2="144.396"/>
					<polyline fill="none" stroke="#EA002D" stroke-width="0.3188" stroke-miterlimit="10" points="220.276,145.523 
						219.945,146.068 219.308,146.068 					"/>
					
						<line fill="none" stroke="#EA002D" stroke-width="0.3188" stroke-miterlimit="10" stroke-dasharray="1.3315,2.6629" x1="216.645" y1="146.068" x2="178.032" y2="146.068"/>
					<polyline fill="none" stroke="#EA002D" stroke-width="0.3188" stroke-miterlimit="10" points="176.701,146.068 
						176.063,146.068 175.73,145.524 					"/>
					
						<line fill="none" stroke="#EA002D" stroke-width="0.3188" stroke-miterlimit="10" stroke-dasharray="1.3221,2.6442" x1="174.349" y1="143.27" x2="154.318" y2="110.577"/>
					<polyline fill="none" stroke="#EA002D" stroke-width="0.3188" stroke-miterlimit="10" points="153.628,109.45 153.295,108.906 
						153.629,108.362 					"/>
					
						<line fill="none" stroke="#EA002D" stroke-width="0.3188" stroke-miterlimit="10" stroke-dasharray="1.3201,2.6402" x1="155.01" y1="106.112" x2="175.039" y2="73.486"/>
				</g>
			</g>
			
				<line fill="none" stroke="#F993A2" stroke-width="1.517" stroke-miterlimit="10" x1="160.792" y1="169.481" x2="234.994" y2="213.312"/>
			
				<line fill="none" stroke="#F993A2" stroke-width="1.517" stroke-miterlimit="10" x1="197.878" y1="146.863" x2="234.994" y2="213.312"/>
			
				<line fill="none" stroke="#F993A2" stroke-width="1.517" stroke-miterlimit="10" x1="198.184" y1="191.554" x2="160.792" y2="213.361"/>
			
				<line fill="none" stroke="#F993A2" stroke-width="1.517" stroke-miterlimit="10" x1="197.878" y1="146.863" x2="179.827" y2="180.438"/>
			
				<line fill="none" stroke="#F993A2" stroke-width="1.517" stroke-miterlimit="10" x1="197.878" y1="236.137" x2="179.827" y2="202.487"/>
			
				<line fill="none" stroke="#F993A2" stroke-width="1.517" stroke-miterlimit="10" x1="223.381" y1="191.646" x2="235.038" y2="169.481"/>
		</g>
	</g>
	<g>
		<path fill="#221F1F" d="M265.059,182.363c-1.403,1.556-3.438,2.465-5.608,2.465c-3.955,0-7.643-2.875-7.643-7.436
			c0-4,3.093-7.432,7.361-7.432c2.369,0,4.144,0.937,5.422,2.214l-1.122,1.283c-1.063-1.03-2.496-1.813-4.3-1.813
			c-2.991,0-5.579,2.5-5.579,5.749c0,3.188,2.492,5.745,5.82,5.745c1.657,0,3.152-0.687,4.362-1.965L265.059,182.363z"/>
		<path fill="#221F1F" d="M279.898,182.2c-1.066,1.345-3.097,2.628-5.804,2.628c-3.991,0-7.135-2.999-7.135-7.436
			c0-4.096,2.767-7.432,6.791-7.432c3.807,0,6.607,2.995,6.607,6.963c0,0.123,0,0.342-0.039,0.627h-11.587
			c0.131,3.029,2.092,5.586,5.362,5.586c1.867,0,3.428-0.747,4.551-2.125L279.898,182.2z M268.829,175.924h9.686
			c-0.361-2.496-2.303-4.28-4.764-4.28C271.225,171.644,269.354,173.458,268.829,175.924z"/>
		<path fill="#221F1F" d="M285.825,172.27c1.159-1.528,3.027-2.31,5.023-2.31c2.053,0,3.896,0.842,5.043,2.403
			c0.781,1.029,1.221,2.219,1.221,4.56v7.591h-1.778v-7.468c0-1.875-0.315-2.779-0.812-3.494c-0.803-1.189-2.15-1.909-3.71-1.909
			c-2.056,0-3.828,1.093-4.926,2.968v9.903h-1.771V170.27h1.71V172.27z"/>
		<path fill="#221F1F" d="M309.712,171.956h-4.835v7.809c0,1.283,0.252,1.901,0.63,2.378c0.496,0.622,1.308,0.995,2.373,0.995
			c0.403,0,0.995-0.031,1.524-0.185l0.308,1.624c-0.464,0.157-1.278,0.252-1.832,0.252c-1.312,0-2.835-0.408-3.806-1.627
			c-0.624-0.781-0.965-1.81-0.965-3.497v-7.75h-3.993v-1.686h3.993v-3.87h1.768v3.87h4.835V171.956z"/>
		<path fill="#221F1F" d="M320.304,171.677c-0.185-0.033-0.744-0.033-0.84-0.033c-1.936,0-3.709,1.312-4.453,3.157v9.714h-1.78
			V170.27h1.78v1.875c0.653-0.999,2.271-2.185,4.493-2.185c0.246,0,0.871,0.031,1.046,0.06L320.304,171.677z"/>
		<path fill="#221F1F" d="M334.931,182.2c-1.068,1.345-3.101,2.628-5.804,2.628c-3.992,0-7.139-2.999-7.139-7.436
			c0-4.096,2.767-7.432,6.794-7.432c3.805,0,6.604,2.995,6.604,6.963c0,0.123,0,0.342-0.036,0.627h-11.59
			c0.119,3.029,2.092,5.586,5.366,5.586c1.866,0,3.426-0.747,4.549-2.125L334.931,182.2z M323.856,175.924h9.685
			c-0.363-2.496-2.302-4.28-4.759-4.28C326.258,171.644,324.386,173.458,323.856,175.924z"/>
		<path fill="#221F1F" d="M355.45,163.839c-0.345-0.095-0.686-0.125-1.062-0.125c-1.149,0-2.151,0.438-2.777,1.343
			c-0.406,0.592-0.648,1.279-0.648,2.965v2.249h4.828v1.686h-4.828v12.56h-1.772v-12.56h-3.688v-1.686h3.688v-2.155
			c0-2.183,0.437-3.437,1.181-4.342c0.971-1.156,2.434-1.746,4.053-1.746c0.461,0,0.932,0.061,1.367,0.153L355.45,163.839z"/>
		<path fill="#221F1F" d="M364.546,184.829c-4.229,0-7.322-3.342-7.322-7.436c0-4.096,3.094-7.432,7.322-7.432
			c4.243,0,7.325,3.336,7.325,7.432C371.871,181.486,368.789,184.829,364.546,184.829z M364.546,171.644
			c-3.215,0-5.541,2.564-5.541,5.749c0,3.188,2.326,5.745,5.541,5.745c3.213,0,5.56-2.557,5.56-5.745
			C370.105,174.208,367.759,171.644,364.546,171.644z"/>
		<path fill="#221F1F" d="M382.751,171.677c-0.188-0.033-0.742-0.033-0.84-0.033c-1.937,0-3.713,1.312-4.451,3.157v9.714h-1.784
			V170.27h1.784v1.875c0.655-0.999,2.269-2.185,4.491-2.185c0.246,0,0.863,0.031,1.048,0.06L382.751,171.677z"/>
		<path fill="#221F1F" d="M252.588,210.272c1.219,1.03,2.714,1.717,4.311,1.717c1.771,0,3.272-1.001,3.272-2.497
			c0-3.657-8.2-1.658-8.2-6.533c0-2.591,2.426-4.152,4.832-4.152c1.923,0,3.521,0.654,4.574,1.371l-0.937,1.473
			c-1.214-0.782-2.088-1.159-3.542-1.159c-1.503,0-3.149,0.782-3.149,2.437c0,3.154,8.192,1.467,8.192,6.464
			c0,2.659-2.243,4.279-4.926,4.279c-2.361,0-4.264-0.875-5.51-2.029L252.588,210.272z"/>
		<path fill="#221F1F" d="M276.266,211.425c-0.994,1.312-2.836,2.248-4.795,2.248c-2.34,0-4.302-1.124-5.33-2.936
			c-0.528-0.968-0.836-2.122-0.836-4.029v-7.589h1.769v7.306c0,2,0.312,2.935,0.818,3.686c0.743,1.124,2.02,1.877,3.579,1.877
			c1.936,0,3.801-1.19,4.735-2.971v-9.898h1.772v14.238h-1.713V211.425z"/>
		<path fill="#221F1F" d="M282.583,210.272c1.206,1.03,2.709,1.717,4.298,1.717c1.772,0,3.275-1.001,3.275-2.497
			c0-3.657-8.196-1.658-8.196-6.533c0-2.591,2.431-4.152,4.828-4.152c1.929,0,3.521,0.654,4.572,1.371l-0.933,1.473
			c-1.219-0.782-2.08-1.159-3.547-1.159c-1.496,0-3.151,0.782-3.151,2.437c0,3.154,8.196,1.467,8.196,6.464
			c0,2.659-2.244,4.279-4.926,4.279c-2.363,0-4.265-0.875-5.515-2.029L282.583,210.272z"/>
		<path fill="#221F1F" d="M304.445,200.804h-4.839v7.812c0,1.277,0.25,1.906,0.627,2.372c0.496,0.627,1.312,1.001,2.374,1.001
			c0.402,0,0.99-0.032,1.524-0.189l0.313,1.625c-0.469,0.151-1.28,0.249-1.838,0.249c-1.312,0-2.834-0.407-3.805-1.62
			c-0.623-0.789-0.969-1.818-0.969-3.502v-7.747h-3.99v-1.685h3.99v-3.875h1.772v3.875h4.839V200.804z"/>
		<path fill="#221F1F" d="M318.821,213.358v-2.094c-1.059,1.438-2.901,2.409-5.112,2.409c-1.34,0-2.836-0.344-4.241-1.343
			c-1.867-1.312-3.026-3.525-3.026-6.089c0-2.376,1.032-4.465,2.659-5.842c1.177-0.967,2.803-1.592,4.514-1.592
			c2.058,0,3.934,0.844,5.207,2.282v-1.97h1.715v14.238H318.821z M318.763,203.368c-0.626-1.065-2.489-2.875-5.113-2.875
			c-1.183,0-2.431,0.407-3.428,1.218c-1.246,1.029-1.996,2.686-1.996,4.53c0,1.965,0.875,3.717,2.244,4.681
			c0.901,0.628,1.997,1.066,3.215,1.066c2.083,0,3.959-1.19,5.078-3.125V203.368z"/>
		<path fill="#221F1F" d="M326.27,192.595c0.875,0,1.594,0.715,1.594,1.59c0,0.877-0.719,1.563-1.594,1.563
			c-0.861,0-1.56-0.686-1.56-1.563C324.71,193.31,325.408,192.595,326.27,192.595z M325.408,199.12h1.765v14.238h-1.765V199.12z"/>
		<path fill="#221F1F" d="M333.728,201.119c1.157-1.532,3.021-2.312,5.021-2.312c2.052,0,3.9,0.844,5.047,2.405
			c0.775,1.03,1.214,2.214,1.214,4.561v7.584h-1.774v-7.464c0-1.869-0.318-2.776-0.813-3.496c-0.802-1.185-2.147-1.905-3.709-1.905
			c-2.056,0-3.828,1.094-4.928,2.968v9.897h-1.771V199.12h1.713V201.119z"/>
		<path fill="#221F1F" d="M360.929,213.358v-2.094c-1.066,1.438-2.897,2.409-5.101,2.409c-1.35,0-2.852-0.344-4.245-1.343
			c-1.877-1.312-3.024-3.525-3.024-6.089c0-2.376,1.028-4.465,2.646-5.842c1.183-0.967,2.8-1.592,4.524-1.592
			c2.053,0,3.928,0.844,5.2,2.282v-1.97h1.711v14.238H360.929z M360.869,203.368c-0.627-1.065-2.495-2.875-5.116-2.875
			c-1.179,0-2.432,0.407-3.426,1.218c-1.25,1.029-1.996,2.686-1.996,4.53c0,1.965,0.873,3.717,2.242,4.681
			c0.911,0.628,2.001,1.066,3.213,1.066c2.094,0,3.962-1.19,5.083-3.125V203.368z"/>
		<path fill="#221F1F" d="M369.181,211.264v2.094h-1.715v-22.171h1.772v9.836c1.345-1.437,3.188-2.216,5.149-2.216
			c1.715,0,3.332,0.625,4.516,1.592c1.617,1.377,2.655,3.466,2.655,5.842c0,2.564-1.157,4.777-3.024,6.089
			c-1.403,0.999-2.906,1.343-4.239,1.343C372.083,213.673,370.24,212.703,369.181,211.264z M369.238,208.864
			c1.119,1.935,2.998,3.125,5.08,3.125c1.215,0,2.314-0.438,3.211-1.066c1.374-0.964,2.247-2.716,2.247-4.681
			c0-1.845-0.748-3.501-1.997-4.53c-0.994-0.811-2.246-1.218-3.425-1.218c-2.624,0-4.491,1.81-5.116,2.875V208.864z"/>
		<path fill="#221F1F" d="M385.391,191.187h1.786v22.171h-1.786V191.187z"/>
		<path fill="#221F1F" d="M403.909,211.05c-1.049,1.345-3.082,2.623-5.789,2.623c-3.991,0-7.133-3-7.133-7.432
			c0-4.092,2.765-7.434,6.793-7.434c3.799,0,6.601,3,6.601,6.966c0,0.12,0,0.345-0.033,0.622h-11.589
			c0.127,3.031,2.088,5.593,5.361,5.593c1.871,0,3.425-0.753,4.552-2.126L403.909,211.05z M392.851,204.769h9.69
			c-0.369-2.494-2.306-4.276-4.761-4.276C395.252,200.493,393.383,202.303,392.851,204.769z"/>
		<path fill="#221F1F" d="M424.443,192.683c-0.342-0.088-0.685-0.123-1.062-0.123c-1.147,0-2.147,0.438-2.764,1.342
			c-0.412,0.599-0.664,1.282-0.664,2.97v2.248h4.828v1.685h-4.828v12.554h-1.771v-12.554h-3.682v-1.685h3.682v-2.153
			c0-2.189,0.437-3.441,1.182-4.342c0.969-1.154,2.436-1.751,4.051-1.751c0.463,0,0.941,0.064,1.367,0.159L424.443,192.683z"/>
		<path fill="#221F1F" d="M438.621,213.358v-2.094c-1.054,1.438-2.896,2.409-5.106,2.409c-1.344,0-2.835-0.344-4.237-1.343
			c-1.871-1.312-3.026-3.525-3.026-6.089c0-2.376,1.028-4.465,2.647-5.842c1.182-0.967,2.811-1.592,4.525-1.592
			c2.052,0,3.921,0.844,5.197,2.282v-1.97h1.713v14.238H438.621z M438.562,203.368c-0.623-1.065-2.494-2.875-5.114-2.875
			c-1.183,0-2.423,0.407-3.427,1.218c-1.241,1.029-1.999,2.686-1.999,4.53c0,1.965,0.877,3.717,2.253,4.681
			c0.904,0.628,1.99,1.066,3.207,1.066c2.09,0,3.957-1.19,5.08-3.125V203.368z"/>
		<path fill="#221F1F" d="M444.937,210.272c1.204,1.03,2.707,1.717,4.298,1.717c1.774,0,3.275-1.001,3.275-2.497
			c0-3.657-8.201-1.658-8.201-6.533c0-2.591,2.438-4.152,4.833-4.152c1.927,0,3.521,0.654,4.572,1.371l-0.933,1.473
			c-1.217-0.782-2.08-1.159-3.547-1.159c-1.498,0-3.153,0.782-3.153,2.437c0,3.154,8.2,1.467,8.2,6.464
			c0,2.659-2.246,4.279-4.926,4.279c-2.357,0-4.265-0.875-5.52-2.029L444.937,210.272z"/>
		<path fill="#221F1F" d="M459.814,201.023c1.122-1.495,3.059-2.216,4.96-2.216c2.054,0,3.895,0.844,5.047,2.405
			c0.777,1.03,1.214,2.214,1.214,4.561v7.584h-1.771v-7.464c0-1.869-0.32-2.776-0.815-3.496c-0.805-1.185-2.147-1.905-3.706-1.905
			c-2.06,0-3.83,1.094-4.928,2.968v9.897h-1.772v-22.171h1.772V201.023z"/>
		<path fill="#221F1F" d="M476.479,192.595c0.861,0,1.586,0.715,1.586,1.59c0,0.877-0.725,1.563-1.586,1.563
			c-0.875,0-1.559-0.686-1.559-1.563C474.921,193.31,475.604,192.595,476.479,192.595z M475.604,199.12h1.77v14.238h-1.77V199.12z"
			/>
		<path fill="#221F1F" d="M488.396,213.673c-4.235,0-7.322-3.342-7.322-7.432c0-4.092,3.087-7.434,7.322-7.434
			c4.233,0,7.325,3.342,7.325,7.434C495.722,210.332,492.63,213.673,488.396,213.673z M488.396,200.493
			c-3.211,0-5.549,2.563-5.549,5.749c0,3.185,2.338,5.748,5.549,5.748c3.205,0,5.542-2.562,5.542-5.748
			C493.938,203.056,491.602,200.493,488.396,200.493z"/>
		<path fill="#221F1F" d="M501.237,201.119c1.148-1.532,3.03-2.312,5.014-2.312c2.065,0,3.898,0.844,5.056,2.405
			c0.776,1.03,1.215,2.214,1.215,4.561v7.584h-1.782v-7.464c0-1.869-0.304-2.776-0.804-3.496c-0.813-1.185-2.149-1.905-3.71-1.905
			c-2.052,0-3.84,1.094-4.923,2.968v9.897h-1.776V199.12h1.711V201.119z"/>
	</g>
	
		<line fill="none" stroke="#8C8C8C" stroke-width="0.3188" stroke-miterlimit="10" x1="586.557" y1="169.104" x2="86.557" y2="169.104"/>
	
		<line fill="none" stroke="#8C8C8C" stroke-width="0.3188" stroke-miterlimit="10" x1="586.557" y1="185.042" x2="86.557" y2="185.042"/>
	
		<line fill="none" stroke="#8C8C8C" stroke-width="0.3188" stroke-miterlimit="10" x1="586.557" y1="199.074" x2="86.557" y2="199.074"/>
	
		<line fill="none" stroke="#8C8C8C" stroke-width="0.3188" stroke-miterlimit="10" x1="586.557" y1="214.121" x2="86.557" y2="214.121"/>
	
		<line fill="none" stroke="#8C8C8C" stroke-width="0.3188" stroke-miterlimit="10" x1="160.87" y1="311.818" x2="160.87" y2="71.818"/>
	
		<line fill="none" stroke="#8C8C8C" stroke-width="0.3188" stroke-miterlimit="10" x1="235.475" y1="311.818" x2="235.475" y2="71.818"/>
	
		<line fill="none" stroke="#8C8C8C" stroke-width="0.3188" stroke-miterlimit="10" x1="251.796" y1="311.818" x2="251.796" y2="71.818"/>
	
		<line fill="none" stroke="#8C8C8C" stroke-width="0.3188" stroke-miterlimit="10" x1="511.952" y1="311.818" x2="511.952" y2="71.818"/>
	
		<rect x="86.557" y="71.818" fill="none" stroke="#8C8C8C" stroke-width="0.3188" stroke-miterlimit="10" width="500" height="240"/>
</g>
</svg>
