<?xml version="1.0" encoding="utf-8"?>
<!-- Generator: Adobe Illustrator 16.0.4, SVG Export Plug-In . SVG Version: 6.00 Build 0)  -->
<!DOCTYPE svg PUBLIC "-//W3C//DTD SVG 1.1//EN" "http://www.w3.org/Graphics/SVG/1.1/DTD/svg11.dtd">
<svg version="1.1" id="Layer_1" xmlns="http://www.w3.org/2000/svg" xmlns:xlink="http://www.w3.org/1999/xlink" x="0px" y="0px"
	 width="469.999px" height="270px" viewBox="0 0 469.999 270" enable-background="new 0 0 469.999 270" xml:space="preserve">
<g>
	<g>
		<g>
			<polygon fill="none" stroke="#F993A2" stroke-width="0.7653" stroke-miterlimit="10" points="-279.186,206.551 -279.186,184.426 
				-260.466,173.033 -241.711,184.426 -241.711,206.551 -260.466,218.033 			"/>
			
				<line fill="none" stroke="#F993A2" stroke-width="0.7653" stroke-miterlimit="10" x1="-279.186" y1="184.426" x2="-241.73" y2="206.525"/>
			
				<line fill="none" stroke="#F993A2" stroke-width="0.7653" stroke-miterlimit="10" x1="-260.466" y1="173.021" x2="-241.73" y2="206.525"/>
			
				<line fill="none" stroke="#F993A2" stroke-width="0.7653" stroke-miterlimit="10" x1="-260.312" y1="195.555" x2="-279.186" y2="206.551"/>
			
				<line fill="none" stroke="#F993A2" stroke-width="0.7653" stroke-miterlimit="10" x1="-260.466" y1="173.021" x2="-269.58" y2="189.949"/>
			
				<line fill="none" stroke="#F993A2" stroke-width="0.7653" stroke-miterlimit="10" x1="-260.466" y1="218.033" x2="-269.58" y2="201.067"/>
			
				<line fill="none" stroke="#F993A2" stroke-width="0.7653" stroke-miterlimit="10" x1="-247.592" y1="195.601" x2="-241.711" y2="184.426"/>
		</g>
	</g>
	<text transform="matrix(0.9986 0 0 1 -231.9673 192.0054)"><tspan x="0" y="0" fill="#221F1F" font-family="'Brown-Light'" font-size="15.7501">centre for  </tspan><tspan x="0" y="14.544" fill="#221F1F" font-family="'Brown-Light'" font-size="15.7501">sustainable fashion</tspan></text>
</g>
<g>
	<g>
		<g>
			<g>
				<polyline fill="none" stroke="#EA002D" stroke-width="0.25" stroke-miterlimit="10" points="40.853,152.151 40.427,151.89 
					40.427,151.39 				"/>
				
					<line fill="none" stroke="#EA002D" stroke-width="0.25" stroke-miterlimit="10" stroke-dasharray="1.044,2.088" x1="40.427" y1="149.302" x2="40.427" y2="119.026"/>
				<polyline fill="none" stroke="#EA002D" stroke-width="0.25" stroke-miterlimit="10" points="40.427,117.982 40.427,117.482 
					40.854,117.222 				"/>
				
					<line fill="none" stroke="#EA002D" stroke-width="0.25" stroke-miterlimit="10" stroke-dasharray="1.0328,2.0656" x1="42.617" y1="116.147" x2="68.194" y2="100.561"/>
				<polyline fill="none" stroke="#EA002D" stroke-width="0.25" stroke-miterlimit="10" points="69.076,100.023 69.503,99.763 
					69.93,100.022 				"/>
				
					<line fill="none" stroke="#EA002D" stroke-width="0.25" stroke-miterlimit="10" stroke-dasharray="1.0345,2.069" x1="71.698" y1="101.098" x2="97.33" y2="116.685"/>
				<polyline fill="none" stroke="#EA002D" stroke-width="0.25" stroke-miterlimit="10" points="98.215,117.223 98.642,117.482 
					98.642,117.982 				"/>
				
					<line fill="none" stroke="#EA002D" stroke-width="0.25" stroke-miterlimit="10" stroke-dasharray="1.044,2.088" x1="98.642" y1="120.07" x2="98.642" y2="150.346"/>
				<polyline fill="none" stroke="#EA002D" stroke-width="0.25" stroke-miterlimit="10" points="98.642,151.39 98.642,151.89 
					98.215,152.151 				"/>
				
					<line fill="none" stroke="#EA002D" stroke-width="0.25" stroke-miterlimit="10" stroke-dasharray="1.0367,2.0734" x1="96.447" y1="153.234" x2="70.813" y2="168.943"/>
				<polyline fill="none" stroke="#EA002D" stroke-width="0.25" stroke-miterlimit="10" points="69.93,169.485 69.503,169.746 
					69.077,169.484 				"/>
				
					<line fill="none" stroke="#EA002D" stroke-width="0.25" stroke-miterlimit="10" stroke-dasharray="1.035,2.0701" x1="67.312" y1="168.401" x2="41.734" y2="152.693"/>
			</g>
		</g>
		<polygon fill="none" stroke="#F993A2" stroke-width="1.1895" stroke-miterlimit="10" points="98.642,151.738 98.642,117.332 
			127.718,99.611 156.856,117.332 156.856,151.738 127.718,169.596 		"/>
		<g>
			<g>
				<polyline fill="none" stroke="#EA002D" stroke-width="0.25" stroke-miterlimit="10" points="374.981,152.151 374.556,151.89 
					374.556,151.39 				"/>
				
					<line fill="none" stroke="#EA002D" stroke-width="0.25" stroke-miterlimit="10" stroke-dasharray="1.044,2.088" x1="374.556" y1="149.302" x2="374.556" y2="119.026"/>
				<polyline fill="none" stroke="#EA002D" stroke-width="0.25" stroke-miterlimit="10" points="374.556,117.982 374.556,117.482 
					374.982,117.222 				"/>
				
					<line fill="none" stroke="#EA002D" stroke-width="0.25" stroke-miterlimit="10" stroke-dasharray="1.0328,2.0656" x1="376.746" y1="116.147" x2="402.323" y2="100.561"/>
				<polyline fill="none" stroke="#EA002D" stroke-width="0.25" stroke-miterlimit="10" points="403.205,100.023 403.632,99.763 
					404.058,100.024 				"/>
				
					<line fill="none" stroke="#EA002D" stroke-width="0.25" stroke-miterlimit="10" stroke-dasharray="1.0272,2.0545" x1="405.809" y1="101.099" x2="431.197" y2="116.684"/>
				<polyline fill="none" stroke="#EA002D" stroke-width="0.25" stroke-miterlimit="10" points="432.073,117.221 432.499,117.482 
					432.499,117.982 				"/>
				
					<line fill="none" stroke="#EA002D" stroke-width="0.25" stroke-miterlimit="10" stroke-dasharray="1.044,2.088" x1="432.499" y1="120.07" x2="432.499" y2="150.346"/>
				<polyline fill="none" stroke="#EA002D" stroke-width="0.25" stroke-miterlimit="10" points="432.499,151.39 432.499,151.89 
					432.074,152.153 				"/>
				
					<line fill="none" stroke="#EA002D" stroke-width="0.25" stroke-miterlimit="10" stroke-dasharray="1.0295,2.059" x1="430.323" y1="153.236" x2="404.933" y2="168.941"/>
				<polyline fill="none" stroke="#EA002D" stroke-width="0.25" stroke-miterlimit="10" points="404.057,169.483 403.632,169.746 
					403.206,169.484 				"/>
				
					<line fill="none" stroke="#EA002D" stroke-width="0.25" stroke-miterlimit="10" stroke-dasharray="1.035,2.0701" x1="401.441" y1="168.401" x2="375.864" y2="152.693"/>
			</g>
		</g>
		<g>
			<g>
				<polyline fill="none" stroke="#EA002D" stroke-width="0.25" stroke-miterlimit="10" points="110.353,170.864 110.614,170.438 
					111.114,170.438 				"/>
				
					<line fill="none" stroke="#EA002D" stroke-width="0.25" stroke-miterlimit="10" stroke-dasharray="1.0439,2.0879" x1="113.202" y1="170.438" x2="143.477" y2="170.438"/>
				<polyline fill="none" stroke="#EA002D" stroke-width="0.25" stroke-miterlimit="10" points="144.521,170.438 145.021,170.438 
					145.28,170.865 				"/>
				
					<line fill="none" stroke="#EA002D" stroke-width="0.25" stroke-miterlimit="10" stroke-dasharray="1.0329,2.0658" x1="146.355" y1="172.629" x2="161.943" y2="198.209"/>
				<polyline fill="none" stroke="#EA002D" stroke-width="0.25" stroke-miterlimit="10" points="162.481,199.091 162.741,199.518 
					162.481,199.944 				"/>
				
					<line fill="none" stroke="#EA002D" stroke-width="0.25" stroke-miterlimit="10" stroke-dasharray="1.0345,2.069" x1="161.406" y1="201.713" x2="145.817" y2="227.345"/>
				<polyline fill="none" stroke="#EA002D" stroke-width="0.25" stroke-miterlimit="10" points="145.28,228.229 145.021,228.656 
					144.521,228.656 				"/>
				
					<line fill="none" stroke="#EA002D" stroke-width="0.25" stroke-miterlimit="10" stroke-dasharray="1.0439,2.0879" x1="142.433" y1="228.656" x2="112.158" y2="228.656"/>
				<polyline fill="none" stroke="#EA002D" stroke-width="0.25" stroke-miterlimit="10" points="111.114,228.656 110.614,228.656 
					110.353,228.229 				"/>
				
					<line fill="none" stroke="#EA002D" stroke-width="0.25" stroke-miterlimit="10" stroke-dasharray="1.0367,2.0735" x1="109.27" y1="226.462" x2="93.56" y2="200.828"/>
				<polyline fill="none" stroke="#EA002D" stroke-width="0.25" stroke-miterlimit="10" points="93.019,199.944 92.757,199.518 
					93.019,199.092 				"/>
				
					<line fill="none" stroke="#EA002D" stroke-width="0.25" stroke-miterlimit="10" stroke-dasharray="1.0352,2.0703" x1="94.102" y1="197.327" x2="109.811" y2="171.746"/>
			</g>
		</g>
		<g>
			<g>
				<polyline fill="none" stroke="#EA002D" stroke-width="0.25" stroke-miterlimit="10" points="110.353,41.182 110.614,40.756 
					111.114,40.756 				"/>
				
					<line fill="none" stroke="#EA002D" stroke-width="0.25" stroke-miterlimit="10" stroke-dasharray="1.0439,2.0879" x1="113.202" y1="40.756" x2="143.477" y2="40.756"/>
				<polyline fill="none" stroke="#EA002D" stroke-width="0.25" stroke-miterlimit="10" points="144.521,40.756 145.021,40.756 
					145.28,41.183 				"/>
				
					<line fill="none" stroke="#EA002D" stroke-width="0.25" stroke-miterlimit="10" stroke-dasharray="1.0329,2.0658" x1="146.355" y1="42.947" x2="161.943" y2="68.526"/>
				<polyline fill="none" stroke="#EA002D" stroke-width="0.25" stroke-miterlimit="10" points="162.481,69.409 162.741,69.835 
					162.481,70.263 				"/>
				
					<line fill="none" stroke="#EA002D" stroke-width="0.25" stroke-miterlimit="10" stroke-dasharray="1.0345,2.069" x1="161.406" y1="72.03" x2="145.817" y2="97.663"/>
				<polyline fill="none" stroke="#EA002D" stroke-width="0.25" stroke-miterlimit="10" points="145.28,98.547 145.021,98.974 
					144.521,98.974 				"/>
				
					<line fill="none" stroke="#EA002D" stroke-width="0.25" stroke-miterlimit="10" stroke-dasharray="1.0439,2.0879" x1="142.433" y1="98.974" x2="112.158" y2="98.974"/>
				<polyline fill="none" stroke="#EA002D" stroke-width="0.25" stroke-miterlimit="10" points="111.114,98.974 110.614,98.974 
					110.353,98.548 				"/>
				
					<line fill="none" stroke="#EA002D" stroke-width="0.25" stroke-miterlimit="10" stroke-dasharray="1.0367,2.0735" x1="109.27" y1="96.78" x2="93.56" y2="71.146"/>
				<polyline fill="none" stroke="#EA002D" stroke-width="0.25" stroke-miterlimit="10" points="93.019,70.262 92.757,69.835 
					93.019,69.409 				"/>
				
					<line fill="none" stroke="#EA002D" stroke-width="0.25" stroke-miterlimit="10" stroke-dasharray="1.0352,2.0703" x1="94.102" y1="67.645" x2="109.811" y2="42.064"/>
			</g>
		</g>
		
			<line fill="none" stroke="#F993A2" stroke-width="1.1895" stroke-miterlimit="10" x1="98.642" y1="117.332" x2="156.823" y2="151.7"/>
		
			<line fill="none" stroke="#F993A2" stroke-width="1.1895" stroke-miterlimit="10" x1="127.718" y1="99.596" x2="156.823" y2="151.7"/>
		
			<line fill="none" stroke="#F993A2" stroke-width="1.1895" stroke-miterlimit="10" x1="127.96" y1="134.639" x2="98.642" y2="151.738"/>
		
			<line fill="none" stroke="#F993A2" stroke-width="1.1895" stroke-miterlimit="10" x1="127.718" y1="99.596" x2="113.565" y2="125.922"/>
		
			<line fill="none" stroke="#F993A2" stroke-width="1.1895" stroke-miterlimit="10" x1="127.718" y1="169.596" x2="113.565" y2="143.211"/>
		
			<line fill="none" stroke="#F993A2" stroke-width="1.1895" stroke-miterlimit="10" x1="147.718" y1="134.71" x2="156.856" y2="117.332"/>
	</g>
</g>
<g>
	<path fill="#221F1F" d="M180.396,127.431c-1.098,1.224-2.689,1.933-4.396,1.933c-3.102,0-5.988-2.253-5.988-5.828
		c0-3.135,2.418-5.829,5.77-5.829c1.854,0,3.248,0.735,4.252,1.739l-0.879,1.004c-0.832-0.809-1.959-1.424-3.373-1.424
		c-2.348,0-4.377,1.963-4.377,4.51c0,2.497,1.955,4.506,4.566,4.506c1.299,0,2.467-0.539,3.424-1.543L180.396,127.431z"/>
	<path fill="#221F1F" d="M192.03,127.305c-0.834,1.055-2.422,2.059-4.549,2.059c-3.127,0-5.596-2.35-5.596-5.828
		c0-3.211,2.176-5.829,5.326-5.829c2.984,0,5.184,2.352,5.184,5.461c0,0.097,0,0.268-0.029,0.49h-9.088
		c0.1,2.375,1.639,4.384,4.203,4.384c1.467,0,2.689-0.588,3.57-1.667L192.03,127.305z M183.354,122.384h7.598
		c-0.287-1.959-1.807-3.358-3.74-3.358C185.233,119.025,183.763,120.449,183.354,122.384z"/>
	<path fill="#221F1F" d="M196.683,119.52c0.906-1.201,2.373-1.813,3.938-1.813c1.609,0,3.053,0.662,3.957,1.887
		c0.613,0.808,0.957,1.739,0.957,3.574v5.951h-1.398v-5.854c0-1.47-0.242-2.178-0.633-2.74c-0.633-0.931-1.688-1.498-2.908-1.498
		c-1.613,0-3.006,0.861-3.861,2.33v7.763h-1.393v-11.166h1.342V119.52z"/>
	<path fill="#221F1F" d="M215.415,119.273h-3.793v6.122c0,1.005,0.199,1.491,0.494,1.862c0.391,0.489,1.023,0.783,1.857,0.783
		c0.318,0,0.783-0.026,1.197-0.147l0.244,1.275c-0.369,0.121-1.004,0.194-1.441,0.194c-1.027,0-2.225-0.318-2.984-1.273
		c-0.486-0.612-0.754-1.42-0.754-2.743v-6.073h-3.129v-1.321h3.129v-3.037h1.387v3.037h3.793V119.273z"/>
	<path fill="#221F1F" d="M223.72,119.054c-0.143-0.028-0.586-0.028-0.66-0.028c-1.516,0-2.908,1.032-3.494,2.478v7.615h-1.391
		v-11.166h1.391v1.469c0.516-0.783,1.785-1.715,3.523-1.715c0.193,0,0.682,0.025,0.824,0.049L223.72,119.054z"/>
	<path fill="#221F1F" d="M235.185,127.305c-0.836,1.055-2.426,2.059-4.549,2.059c-3.129,0-5.6-2.35-5.6-5.828
		c0-3.211,2.176-5.829,5.328-5.829c2.982,0,5.182,2.352,5.182,5.461c0,0.097,0,0.268-0.025,0.49h-9.092
		c0.098,2.375,1.639,4.384,4.207,4.384c1.465,0,2.688-0.588,3.568-1.667L235.185,127.305z M226.503,122.384h7.598
		c-0.289-1.959-1.807-3.358-3.736-3.358C228.388,119.025,226.917,120.449,226.503,122.384z"/>
	<path fill="#221F1F" d="M251.278,112.907c-0.271-0.073-0.539-0.099-0.832-0.099c-0.906,0-1.688,0.343-2.176,1.053
		c-0.322,0.466-0.512,1.005-0.512,2.327v1.764h3.785v1.321h-3.785v9.845h-1.393v-9.845h-2.887v-1.321h2.887v-1.69
		c0-1.714,0.342-2.694,0.928-3.404c0.76-0.907,1.906-1.371,3.178-1.371c0.365,0,0.732,0.05,1.072,0.122L251.278,112.907z"/>
	<path fill="#221F1F" d="M258.413,129.363c-3.322,0-5.742-2.619-5.742-5.828c0-3.211,2.42-5.829,5.742-5.829
		c3.326,0,5.744,2.618,5.744,5.829C264.157,126.744,261.739,129.363,258.413,129.363z M258.413,119.025
		c-2.52,0-4.35,2.012-4.35,4.51c0,2.497,1.83,4.506,4.35,4.506c2.518,0,4.357-2.009,4.357-4.506
		C262.771,121.037,260.931,119.025,258.413,119.025z"/>
	<path fill="#221F1F" d="M272.687,119.054c-0.146-0.028-0.584-0.028-0.66-0.028c-1.516,0-2.912,1.032-3.492,2.478v7.615h-1.395
		v-11.166h1.395v1.469c0.518-0.783,1.783-1.715,3.521-1.715c0.193,0,0.684,0.025,0.826,0.049L272.687,119.054z"/>
	<path fill="#221F1F" d="M170.622,149.313c0.955,0.809,2.123,1.348,3.373,1.348c1.393,0,2.566-0.784,2.566-1.959
		c0-2.866-6.43-1.3-6.43-5.12c0-2.032,1.908-3.256,3.789-3.256c1.512,0,2.762,0.513,3.594,1.076l-0.736,1.151
		c-0.951-0.612-1.635-0.905-2.783-0.905c-1.176,0-2.465,0.612-2.465,1.909c0,2.475,6.422,1.151,6.422,5.067
		c0,2.085-1.758,3.357-3.861,3.357c-1.855,0-3.346-0.686-4.318-1.592L170.622,149.313z"/>
	<path fill="#221F1F" d="M189.188,150.219c-0.783,1.028-2.225,1.764-3.762,1.764c-1.834,0-3.375-0.882-4.182-2.303
		c-0.412-0.758-0.656-1.664-0.656-3.159v-5.95h1.389v5.73c0,1.567,0.248,2.302,0.639,2.89c0.586,0.882,1.588,1.471,2.811,1.471
		c1.514,0,2.979-0.932,3.713-2.327v-7.764h1.393v11.165h-1.344V150.219z"/>
	<path fill="#221F1F" d="M194.136,149.313c0.953,0.809,2.129,1.348,3.371,1.348c1.393,0,2.568-0.784,2.568-1.959
		c0-2.866-6.426-1.3-6.426-5.12c0-2.032,1.904-3.256,3.785-3.256c1.518,0,2.762,0.513,3.592,1.076l-0.732,1.151
		c-0.955-0.612-1.637-0.905-2.787-0.905c-1.17,0-2.467,0.612-2.467,1.909c0,2.475,6.426,1.151,6.426,5.067
		c0,2.085-1.76,3.357-3.861,3.357c-1.857,0-3.348-0.686-4.324-1.592L194.136,149.313z"/>
	<path fill="#221F1F" d="M211.286,141.892h-3.795v6.124c0,1.003,0.197,1.495,0.49,1.861c0.391,0.489,1.027,0.784,1.857,0.784
		c0.318,0,0.779-0.026,1.197-0.147l0.25,1.272c-0.373,0.12-1.006,0.196-1.447,0.196c-1.027,0-2.223-0.317-2.982-1.272
		c-0.486-0.615-0.758-1.423-0.758-2.743v-6.075h-3.127v-1.321h3.127v-3.037h1.393v3.037h3.795V141.892z"/>
	<path fill="#221F1F" d="M222.554,151.735v-1.641c-0.828,1.128-2.27,1.888-4.006,1.888c-1.055,0-2.225-0.27-3.324-1.053
		c-1.467-1.028-2.373-2.767-2.373-4.776c0-1.86,0.811-3.501,2.08-4.578c0.924-0.761,2.201-1.249,3.543-1.249
		c1.615,0,3.08,0.66,4.08,1.787v-1.543h1.346v11.165H222.554z M222.507,143.901c-0.49-0.833-1.953-2.253-4.008-2.253
		c-0.93,0-1.904,0.317-2.689,0.954c-0.973,0.808-1.564,2.106-1.564,3.551c0,1.543,0.686,2.915,1.76,3.674
		c0.711,0.49,1.564,0.834,2.52,0.834c1.639,0,3.104-0.932,3.982-2.45V143.901z"/>
	<path fill="#221F1F" d="M228.399,135.453c0.686,0,1.246,0.562,1.246,1.247c0,0.688-0.561,1.226-1.246,1.226
		c-0.682,0-1.223-0.538-1.223-1.226C227.177,136.016,227.718,135.453,228.399,135.453z M227.718,140.57h1.385v11.165h-1.385V140.57z
		"/>
	<path fill="#221F1F" d="M234.245,142.138c0.904-1.2,2.367-1.812,3.936-1.812c1.609,0,3.057,0.66,3.961,1.884
		c0.607,0.809,0.951,1.739,0.951,3.578v5.947h-1.395v-5.852c0-1.468-0.246-2.181-0.635-2.742c-0.633-0.932-1.684-1.493-2.908-1.493
		c-1.613,0-3.006,0.856-3.863,2.325v7.762h-1.391V140.57h1.344V142.138z"/>
	<path fill="#221F1F" d="M255.575,151.735v-1.641c-0.834,1.128-2.275,1.888-4.004,1.888c-1.055,0-2.23-0.27-3.328-1.053
		c-1.467-1.028-2.371-2.767-2.371-4.776c0-1.86,0.807-3.501,2.076-4.578c0.93-0.761,2.199-1.249,3.545-1.249
		c1.609,0,3.084,0.66,4.082,1.787v-1.543h1.342v11.165H255.575z M255.526,143.901c-0.49-0.833-1.957-2.253-4.01-2.253
		c-0.926,0-1.904,0.317-2.688,0.954c-0.977,0.808-1.564,2.106-1.564,3.551c0,1.543,0.684,2.915,1.758,3.674
		c0.711,0.49,1.568,0.834,2.518,0.834c1.641,0,3.107-0.932,3.986-2.45V143.901z"/>
	<path fill="#221F1F" d="M262.046,150.095v1.641H260.7v-17.385h1.393v7.712c1.051-1.125,2.494-1.736,4.033-1.736
		c1.346,0,2.615,0.488,3.545,1.249c1.27,1.077,2.076,2.718,2.076,4.578c0,2.01-0.904,3.748-2.371,4.776
		c-1.098,0.783-2.273,1.053-3.322,1.053C264.317,151.982,262.874,151.223,262.046,150.095z M262.093,148.211
		c0.877,1.519,2.346,2.45,3.984,2.45c0.951,0,1.809-0.344,2.516-0.834c1.078-0.759,1.762-2.131,1.762-3.674
		c0-1.444-0.59-2.743-1.564-3.551c-0.783-0.637-1.762-0.954-2.688-0.954c-2.055,0-3.521,1.42-4.01,2.253V148.211z"/>
	<path fill="#221F1F" d="M274.757,134.351h1.396v17.385h-1.396V134.351z"/>
	<path fill="#221F1F" d="M289.28,149.924c-0.826,1.055-2.418,2.059-4.545,2.059c-3.127,0-5.594-2.352-5.594-5.829
		c0-3.207,2.174-5.827,5.328-5.827c2.977,0,5.178,2.352,5.178,5.462c0,0.096,0,0.269-0.023,0.487h-9.09
		c0.096,2.377,1.635,4.386,4.201,4.386c1.471,0,2.688-0.589,3.572-1.667L289.28,149.924z M280.604,145.002h7.604
		c-0.295-1.957-1.811-3.354-3.738-3.354C282.489,141.648,281.021,143.068,280.604,145.002z"/>
	<path fill="#221F1F" d="M305.378,135.525c-0.268-0.072-0.537-0.097-0.83-0.097c-0.904,0-1.684,0.343-2.172,1.052
		c-0.318,0.467-0.518,1.002-0.518,2.327v1.763h3.785v1.321h-3.785v9.844h-1.391v-9.844h-2.883v-1.321h2.883v-1.689
		c0-1.714,0.342-2.697,0.928-3.403c0.758-0.907,1.908-1.372,3.176-1.372c0.367,0,0.74,0.049,1.072,0.123L305.378,135.525z"/>
	<path fill="#221F1F" d="M316.499,151.735v-1.641c-0.832,1.128-2.273,1.888-4.01,1.888c-1.049,0-2.223-0.27-3.32-1.053
		c-1.471-1.028-2.373-2.767-2.373-4.776c0-1.86,0.807-3.501,2.078-4.578c0.928-0.761,2.199-1.249,3.545-1.249
		c1.609,0,3.078,0.66,4.08,1.787v-1.543h1.344v11.165H316.499z M316.45,143.901c-0.486-0.833-1.957-2.253-4.008-2.253
		c-0.93,0-1.906,0.317-2.689,0.954c-0.977,0.808-1.566,2.106-1.566,3.551c0,1.543,0.688,2.915,1.768,3.674
		c0.705,0.49,1.559,0.834,2.512,0.834c1.637,0,3.104-0.932,3.984-2.45V143.901z"/>
	<path fill="#221F1F" d="M321.444,149.313c0.951,0.809,2.127,1.348,3.371,1.348c1.395,0,2.568-0.784,2.568-1.959
		c0-2.866-6.43-1.3-6.43-5.12c0-2.032,1.91-3.256,3.789-3.256c1.516,0,2.762,0.513,3.592,1.076l-0.732,1.151
		c-0.953-0.612-1.637-0.905-2.787-0.905c-1.172,0-2.469,0.612-2.469,1.909c0,2.475,6.43,1.151,6.43,5.067
		c0,2.085-1.762,3.357-3.861,3.357c-1.852,0-3.348-0.686-4.328-1.592L321.444,149.313z"/>
	<path fill="#221F1F" d="M333.118,142.062c0.879-1.173,2.395-1.736,3.885-1.736c1.611,0,3.053,0.66,3.961,1.884
		c0.609,0.809,0.951,1.739,0.951,3.578v5.947h-1.393v-5.852c0-1.468-0.246-2.181-0.635-2.742c-0.637-0.932-1.686-1.493-2.906-1.493
		c-1.617,0-3.008,0.856-3.863,2.325v7.762h-1.393v-17.385h1.393V142.062z"/>
	<path fill="#221F1F" d="M346.179,135.453c0.682,0,1.248,0.562,1.248,1.247c0,0.688-0.566,1.226-1.248,1.226
		c-0.686,0-1.221-0.538-1.221-1.226C344.958,136.016,345.493,135.453,346.179,135.453z M345.493,140.57h1.391v11.165h-1.391V140.57z
		"/>
	<path fill="#221F1F" d="M355.524,151.982c-3.318,0-5.74-2.62-5.74-5.829c0-3.207,2.422-5.827,5.74-5.827
		c3.326,0,5.744,2.62,5.744,5.827C361.269,149.362,358.851,151.982,355.524,151.982z M355.524,141.648
		c-2.516,0-4.348,2.009-4.348,4.505c0,2.499,1.832,4.508,4.348,4.508c2.52,0,4.352-2.009,4.352-4.508
		C359.876,143.657,358.044,141.648,355.524,141.648z"/>
	<path fill="#221F1F" d="M365.593,142.138c0.906-1.2,2.377-1.812,3.939-1.812c1.611,0,3.055,0.66,3.959,1.884
		c0.607,0.809,0.951,1.739,0.951,3.578v5.947h-1.393v-5.852c0-1.468-0.24-2.181-0.635-2.742c-0.635-0.932-1.686-1.493-2.908-1.493
		c-1.609,0-3.008,0.856-3.859,2.325v7.762h-1.396V140.57h1.342V142.138z"/>
</g>
<line fill="none" stroke="#8C8C8C" stroke-width="0.25" stroke-miterlimit="10" x1="432.499" y1="117.035" x2="40.427" y2="117.035"/>
<line fill="none" stroke="#8C8C8C" stroke-width="0.25" stroke-miterlimit="10" x1="432.499" y1="129.535" x2="40.427" y2="129.535"/>
<line fill="none" stroke="#8C8C8C" stroke-width="0.25" stroke-miterlimit="10" x1="432.499" y1="140.535" x2="40.427" y2="140.535"/>
<line fill="none" stroke="#8C8C8C" stroke-width="0.25" stroke-miterlimit="10" x1="432.499" y1="152.335" x2="40.427" y2="152.335"/>
<line fill="none" stroke="#8C8C8C" stroke-width="0.25" stroke-miterlimit="10" x1="98.698" y1="228.939" x2="98.698" y2="40.756"/>
<line fill="none" stroke="#8C8C8C" stroke-width="0.25" stroke-miterlimit="10" x1="157.198" y1="228.939" x2="157.198" y2="40.756"/>
<line fill="none" stroke="#8C8C8C" stroke-width="0.25" stroke-miterlimit="10" x1="169.999" y1="228.939" x2="169.999" y2="40.756"/>
<line fill="none" stroke="#8C8C8C" stroke-width="0.25" stroke-miterlimit="10" x1="373.999" y1="228.939" x2="373.999" y2="40.756"/>
<rect x="40.427" y="40.756" fill="none" stroke="#8C8C8C" stroke-width="0.25" stroke-miterlimit="10" width="392.072" height="188.184"/>
</svg>
